<svg width="140" height="33" viewBox="0 0 140 33" fill="none" xmlns="http://www.w3.org/2000/svg">
<path d="M129.095 10.222H131.993V4.15601H135.107V10.222H138.905V12.904H135.107V20.212C135.107 21.076 135.257 21.712 135.557 22.12C135.869 22.528 136.283 22.732 136.799 22.732C137.255 22.732 137.609 22.648 137.861 22.48C138.113 22.312 138.263 22.198 138.311 22.138L139.553 24.442C139.481 24.502 139.289 24.616 138.977 24.784C138.665 24.952 138.263 25.102 137.771 25.234C137.279 25.366 136.703 25.432 136.043 25.432C134.891 25.432 133.925 25.084 133.145 24.388C132.377 23.68 131.993 22.564 131.993 21.04V12.904H129.095V10.222Z" fill="white"/>
<path d="M120.636 25H117.522V10.222H120.636V12.778H120.546C120.606 12.466 120.828 12.076 121.212 11.608C121.596 11.14 122.124 10.72 122.796 10.348C123.468 9.97599 124.272 9.78999 125.208 9.78999C125.892 9.78999 126.492 9.88599 127.008 10.078C127.536 10.258 127.908 10.438 128.124 10.618L126.846 13.21C126.678 13.042 126.384 12.874 125.964 12.706C125.544 12.526 125.022 12.436 124.398 12.436C123.606 12.436 122.928 12.682 122.364 13.174C121.8 13.666 121.368 14.26 121.068 14.956C120.78 15.64 120.636 16.276 120.636 16.864V25Z" fill="white"/>
<path d="M106.328 25.432C104.804 25.432 103.448 25.09 102.26 24.406C101.084 23.722 100.16 22.798 99.4877 21.634C98.8157 20.458 98.4797 19.132 98.4797 17.656C98.4797 16.18 98.8157 14.848 99.4877 13.66C100.16 12.472 101.084 11.53 102.26 10.834C103.448 10.138 104.804 9.78999 106.328 9.78999C107.84 9.78999 109.178 10.138 110.342 10.834C111.518 11.53 112.436 12.472 113.096 13.66C113.756 14.848 114.086 16.18 114.086 17.656C114.086 19.132 113.756 20.458 113.096 21.634C112.436 22.798 111.518 23.722 110.342 24.406C109.178 25.09 107.84 25.432 106.328 25.432ZM106.328 22.75C107.288 22.75 108.122 22.528 108.83 22.084C109.55 21.64 110.108 21.034 110.504 20.266C110.9 19.486 111.098 18.61 111.098 17.638C111.098 16.666 110.9 15.79 110.504 15.01C110.108 14.23 109.55 13.612 108.83 13.156C108.122 12.7 107.288 12.472 106.328 12.472C105.356 12.472 104.51 12.7 103.79 13.156C103.07 13.612 102.506 14.23 102.098 15.01C101.702 15.79 101.504 16.666 101.504 17.638C101.504 18.61 101.702 19.486 102.098 20.266C102.506 21.034 103.07 21.64 103.79 22.084C104.51 22.528 105.356 22.75 106.328 22.75Z" fill="white"/>
<path d="M83.3549 32.488H80.2409V10.222H83.4089V12.994C83.5169 12.622 83.8169 12.184 84.3089 11.68C84.8009 11.176 85.4609 10.738 86.2889 10.366C87.1289 9.98199 88.0889 9.78999 89.1689 9.78999C90.5369 9.78999 91.7489 10.12 92.8049 10.78C93.8729 11.428 94.7069 12.34 95.3069 13.516C95.9189 14.68 96.2249 16.048 96.2249 17.62C96.2249 19.192 95.9129 20.566 95.2889 21.742C94.6649 22.906 93.8129 23.812 92.7329 24.46C91.6649 25.108 90.4409 25.432 89.0609 25.432C87.9449 25.432 86.9669 25.222 86.1269 24.802C85.2989 24.382 84.6449 23.908 84.1649 23.38C83.6969 22.852 83.4269 22.432 83.3549 22.12V32.488ZM93.1289 17.62C93.1289 16.552 92.9069 15.628 92.4629 14.848C92.0309 14.068 91.4549 13.462 90.7349 13.03C90.0149 12.598 89.2349 12.382 88.3949 12.382C87.4709 12.382 86.6309 12.604 85.8749 13.048C85.1189 13.48 84.5189 14.092 84.0749 14.884C83.6309 15.664 83.4089 16.576 83.4089 17.62C83.4089 18.664 83.6309 19.582 84.0749 20.374C84.5189 21.154 85.1189 21.76 85.8749 22.192C86.6309 22.624 87.4709 22.84 88.3949 22.84C89.2349 22.84 90.0149 22.63 90.7349 22.21C91.4549 21.778 92.0309 21.172 92.4629 20.392C92.9069 19.612 93.1289 18.688 93.1289 17.62Z" fill="white"/>
<path d="M71.2465 9.78999C72.0145 9.78999 72.7285 9.86799 73.3885 10.024C74.0605 10.18 74.6365 10.366 75.1165 10.582C75.6085 10.798 75.9565 10.99 76.1605 11.158L74.9185 13.138C74.6785 12.922 74.2465 12.682 73.6225 12.418C72.9985 12.142 72.3025 12.004 71.5345 12.004C70.6945 12.004 69.9805 12.172 69.3925 12.508C68.8045 12.832 68.5105 13.306 68.5105 13.93C68.5105 14.554 68.8105 15.052 69.4105 15.424C70.0225 15.784 70.8385 16.084 71.8585 16.324C72.6745 16.516 73.4365 16.774 74.1445 17.098C74.8645 17.422 75.4465 17.872 75.8905 18.448C76.3345 19.012 76.5565 19.768 76.5565 20.716C76.5565 21.58 76.3765 22.318 76.0165 22.93C75.6565 23.53 75.1705 24.016 74.5585 24.388C73.9465 24.748 73.2625 25.012 72.5065 25.18C71.7505 25.348 70.9825 25.432 70.2025 25.432C69.2905 25.432 68.4685 25.336 67.7365 25.144C67.0045 24.964 66.3865 24.748 65.8825 24.496C65.3905 24.232 65.0305 24.004 64.8025 23.812L66.0445 21.58C66.3565 21.88 66.8665 22.198 67.5745 22.534C68.2945 22.87 69.1105 23.038 70.0225 23.038C71.0305 23.038 71.8465 22.828 72.4705 22.408C73.0945 21.976 73.4065 21.418 73.4065 20.734C73.4065 20.218 73.2565 19.804 72.9565 19.492C72.6565 19.18 72.2545 18.928 71.7505 18.736C71.2465 18.544 70.6945 18.376 70.0945 18.232C69.5185 18.1 68.9545 17.926 68.4025 17.71C67.8625 17.494 67.3645 17.218 66.9085 16.882C66.4645 16.534 66.1105 16.114 65.8465 15.622C65.5825 15.118 65.4505 14.53 65.4505 13.858C65.4505 13.006 65.7205 12.28 66.2605 11.68C66.8005 11.068 67.5085 10.6 68.3845 10.276C69.2605 9.95199 70.2145 9.78999 71.2465 9.78999Z" fill="white"/>
<path d="M52.5245 10.222H55.4225V4.15601H58.5365V10.222H62.3345V12.904H58.5365V20.212C58.5365 21.076 58.6865 21.712 58.9865 22.12C59.2985 22.528 59.7125 22.732 60.2285 22.732C60.6845 22.732 61.0385 22.648 61.2905 22.48C61.5425 22.312 61.6925 22.198 61.7405 22.138L62.9825 24.442C62.9105 24.502 62.7185 24.616 62.4065 24.784C62.0945 24.952 61.6925 25.102 61.2005 25.234C60.7085 25.366 60.1325 25.432 59.4725 25.432C58.3205 25.432 57.3545 25.084 56.5745 24.388C55.8065 23.68 55.4225 22.564 55.4225 21.04V12.904H52.5245V10.222Z" fill="white"/>
<path d="M43.5569 9.78999C44.5289 9.78999 45.4709 9.99399 46.3829 10.402C47.3069 10.81 48.0629 11.458 48.6509 12.346C49.2509 13.222 49.5509 14.368 49.5509 15.784V25H46.3829V16.396C46.3829 14.932 46.0469 13.87 45.3749 13.21C44.7149 12.538 43.8449 12.202 42.7649 12.202C42.0449 12.202 41.3549 12.406 40.6949 12.814C40.0349 13.21 39.4889 13.762 39.0569 14.47C38.6369 15.166 38.4269 15.958 38.4269 16.846V25H35.2589V0.231995H38.4269V12.85C38.5349 12.442 38.8229 11.998 39.2909 11.518C39.7709 11.038 40.3829 10.63 41.1269 10.294C41.8709 9.95799 42.6809 9.78999 43.5569 9.78999Z" fill="white"/>
<path d="M22.9773 32.902C21.8133 32.902 20.7573 32.782 19.8093 32.542C18.8733 32.302 18.0513 31.96 17.3433 31.516C16.6473 31.084 16.0893 30.574 15.6693 29.986L17.7213 28.024C17.9493 28.336 18.2553 28.666 18.6393 29.014C19.0353 29.374 19.5693 29.68 20.2413 29.932C20.9133 30.184 21.7893 30.31 22.8693 30.31C23.9253 30.31 24.8193 30.082 25.5513 29.626C26.2833 29.182 26.8413 28.576 27.2253 27.808C27.6093 27.04 27.8013 26.176 27.8013 25.216V24.73H30.8613V25.414C30.8613 27.046 30.5073 28.414 29.7993 29.518C29.1033 30.634 28.1613 31.474 26.9733 32.038C25.7853 32.614 24.4533 32.902 22.9773 32.902ZM27.8013 25V22.12C27.7053 22.42 27.4233 22.834 26.9553 23.362C26.4993 23.89 25.8693 24.37 25.0653 24.802C24.2733 25.222 23.3373 25.432 22.2573 25.432C20.8893 25.432 19.6473 25.108 18.5313 24.46C17.4273 23.812 16.5453 22.906 15.8853 21.742C15.2373 20.566 14.9133 19.192 14.9133 17.62C14.9133 16.048 15.2373 14.68 15.8853 13.516C16.5453 12.34 17.4273 11.428 18.5313 10.78C19.6473 10.12 20.8893 9.78999 22.2573 9.78999C23.3253 9.78999 24.2493 9.98199 25.0293 10.366C25.8213 10.75 26.4513 11.194 26.9193 11.698C27.3993 12.202 27.6813 12.634 27.7653 12.994V10.222H30.8613V25H27.8013ZM18.0093 17.62C18.0093 18.688 18.2433 19.612 18.7113 20.392C19.1793 21.172 19.7853 21.778 20.5293 22.21C21.2853 22.63 22.0893 22.84 22.9413 22.84C23.8533 22.84 24.6693 22.624 25.3893 22.192C26.1093 21.76 26.6793 21.154 27.0993 20.374C27.5193 19.582 27.7293 18.664 27.7293 17.62C27.7293 16.576 27.5193 15.664 27.0993 14.884C26.6793 14.092 26.1093 13.48 25.3893 13.048C24.6693 12.604 23.8533 12.382 22.9413 12.382C22.0893 12.382 21.2853 12.598 20.5293 13.03C19.7853 13.462 19.1793 14.068 18.7113 14.848C18.2433 15.628 18.0093 16.552 18.0093 17.62Z" fill="white"/>
<path d="M8.00153 25V10.222H11.1335V25H8.00153ZM9.60353 5.16399C9.03953 5.16399 8.55353 4.96599 8.14553 4.56999C7.74953 4.16199 7.55153 3.67599 7.55153 3.11199C7.55153 2.54799 7.74953 2.06199 8.14553 1.65399C8.55353 1.24599 9.03953 1.04199 9.60353 1.04199C9.97553 1.04199 10.3175 1.13799 10.6295 1.32999C10.9535 1.52199 11.2115 1.77399 11.4035 2.08599C11.5955 2.38599 11.6915 2.72799 11.6915 3.11199C11.6915 3.67599 11.4875 4.16199 11.0795 4.56999C10.6715 4.96599 10.1795 5.16399 9.60353 5.16399Z" fill="white"/>
<path d="M3.148 25H-0.0019989V0.231995H3.148V25Z" fill="white"/>
</svg>
